<?xml version="1.0" standalone="no"?>
<svg xmlns="http://www.w3.org/2000/svg" width="400" height="400"><defs><clipPath id="clip-path-dot-color"><rect x="0" y="128" width="16" height="16" transform="rotate(0,8,136)"/><rect x="0" y="144" width="16" height="16" transform="rotate(0,8,152)"/><rect x="0" y="160" width="16" height="16" transform="rotate(0,8,168)"/><rect x="0" y="176" width="16" height="16" transform="rotate(0,8,184)"/><rect x="0" y="224" width="16" height="16" transform="rotate(0,8,232)"/><rect x="16" y="128" width="16" height="16" transform="rotate(0,24,136)"/><rect x="16" y="176" width="16" height="16" transform="rotate(0,24,184)"/><rect x="16" y="208" width="16" height="16" transform="rotate(0,24,216)"/><rect x="16" y="224" width="16" height="16" transform="rotate(0,24,232)"/><rect x="16" y="256" width="16" height="16" transform="rotate(0,24,264)"/><rect x="32" y="144" width="16" height="16" transform="rotate(0,40,152)"/><rect x="32" y="208" width="16" height="16" transform="rotate(0,40,216)"/><rect x="32" y="224" width="16" height="16" transform="rotate(0,40,232)"/><rect x="32" y="240" width="16" height="16" transform="rotate(0,40,248)"/><rect x="32" y="256" width="16" height="16" transform="rotate(0,40,264)"/><rect x="48" y="176" width="16" height="16" transform="rotate(0,56,184)"/><rect x="48" y="192" width="16" height="16" transform="rotate(0,56,200)"/><rect x="48" y="208" width="16" height="16" transform="rotate(0,56,216)"/><rect x="48" y="224" width="16" height="16" transform="rotate(0,56,232)"/><rect x="48" y="240" width="16" height="16" transform="rotate(0,56,248)"/><rect x="64" y="128" width="16" height="16" transform="rotate(0,72,136)"/><rect x="64" y="176" width="16" height="16" transform="rotate(0,72,184)"/><rect x="64" y="192" width="16" height="16" transform="rotate(0,72,200)"/><rect x="64" y="224" width="16" height="16" transform="rotate(0,72,232)"/><rect x="80" y="128" width="16" height="16" transform="rotate(0,88,136)"/><rect x="80" y="144" width="16" height="16" transform="rotate(0,88,152)"/><rect x="80" y="160" width="16" height="16" transform="rotate(0,88,168)"/><rect x="80" y="192" width="16" height="16" transform="rotate(0,88,200)"/><rect x="80" y="208" width="16" height="16" transform="rotate(0,88,216)"/><rect x="96" y="128" width="16" height="16" transform="rotate(0,104,136)"/><rect x="96" y="160" width="16" height="16" transform="rotate(0,104,168)"/><rect x="96" y="192" width="16" height="16" transform="rotate(0,104,200)"/><rect x="96" y="224" width="16" height="16" transform="rotate(0,104,232)"/><rect x="96" y="256" width="16" height="16" transform="rotate(0,104,264)"/><rect x="112" y="128" width="16" height="16" transform="rotate(0,120,136)"/><rect x="112" y="144" width="16" height="16" transform="rotate(0,120,152)"/><rect x="112" y="224" width="16" height="16" transform="rotate(0,120,232)"/><rect x="112" y="256" width="16" height="16" transform="rotate(0,120,264)"/><rect x="128" y="0" width="16" height="16" transform="rotate(0,136,8)"/><rect x="128" y="16" width="16" height="16" transform="rotate(0,136,24)"/><rect x="128" y="32" width="16" height="16" transform="rotate(0,136,40)"/><rect x="128" y="80" width="16" height="16" transform="rotate(0,136,88)"/><rect x="128" y="96" width="16" height="16" transform="rotate(0,136,104)"/><rect x="128" y="128" width="16" height="16" transform="rotate(0,136,136)"/><rect x="128" y="144" width="16" height="16" transform="rotate(0,136,152)"/><rect x="128" y="176" width="16" height="16" transform="rotate(0,136,184)"/><rect x="128" y="192" width="16" height="16" transform="rotate(0,136,200)"/><rect x="128" y="224" width="16" height="16" transform="rotate(0,136,232)"/><rect x="128" y="256" width="16" height="16" transform="rotate(0,136,264)"/><rect x="128" y="272" width="16" height="16" transform="rotate(0,136,280)"/><rect x="128" y="288" width="16" height="16" transform="rotate(0,136,296)"/><rect x="128" y="304" width="16" height="16" transform="rotate(0,136,312)"/><rect x="128" y="320" width="16" height="16" transform="rotate(0,136,328)"/><rect x="128" y="368" width="16" height="16" transform="rotate(0,136,376)"/><rect x="128" y="384" width="16" height="16" transform="rotate(0,136,392)"/><rect x="144" y="0" width="16" height="16" transform="rotate(0,152,8)"/><rect x="144" y="16" width="16" height="16" transform="rotate(0,152,24)"/><rect x="144" y="32" width="16" height="16" transform="rotate(0,152,40)"/><rect x="144" y="48" width="16" height="16" transform="rotate(0,152,56)"/><rect x="144" y="64" width="16" height="16" transform="rotate(0,152,72)"/><rect x="144" y="80" width="16" height="16" transform="rotate(0,152,88)"/><rect x="144" y="128" width="16" height="16" transform="rotate(0,152,136)"/><rect x="144" y="192" width="16" height="16" transform="rotate(0,152,200)"/><rect x="144" y="208" width="16" height="16" transform="rotate(0,152,216)"/><rect x="144" y="240" width="16" height="16" transform="rotate(0,152,248)"/><rect x="144" y="256" width="16" height="16" transform="rotate(0,152,264)"/><rect x="144" y="288" width="16" height="16" transform="rotate(0,152,296)"/><rect x="144" y="336" width="16" height="16" transform="rotate(0,152,344)"/><rect x="144" y="368" width="16" height="16" transform="rotate(0,152,376)"/><rect x="144" y="384" width="16" height="16" transform="rotate(0,152,392)"/><rect x="160" y="48" width="16" height="16" transform="rotate(0,168,56)"/><rect x="160" y="96" width="16" height="16" transform="rotate(0,168,104)"/><rect x="160" y="128" width="16" height="16" transform="rotate(0,168,136)"/><rect x="160" y="144" width="16" height="16" transform="rotate(0,168,152)"/><rect x="160" y="160" width="16" height="16" transform="rotate(0,168,168)"/><rect x="160" y="192" width="16" height="16" transform="rotate(0,168,200)"/><rect x="160" y="240" width="16" height="16" transform="rotate(0,168,248)"/><rect x="160" y="256" width="16" height="16" transform="rotate(0,168,264)"/><rect x="160" y="304" width="16" height="16" transform="rotate(0,168,312)"/><rect x="160" y="320" width="16" height="16" transform="rotate(0,168,328)"/><rect x="160" y="336" width="16" height="16" transform="rotate(0,168,344)"/><rect x="160" y="352" width="16" height="16" transform="rotate(0,168,360)"/><rect x="160" y="384" width="16" height="16" transform="rotate(0,168,392)"/><rect x="176" y="16" width="16" height="16" transform="rotate(0,184,24)"/><rect x="176" y="48" width="16" height="16" transform="rotate(0,184,56)"/><rect x="176" y="112" width="16" height="16" transform="rotate(0,184,120)"/><rect x="176" y="160" width="16" height="16" transform="rotate(0,184,168)"/><rect x="176" y="176" width="16" height="16" transform="rotate(0,184,184)"/><rect x="176" y="192" width="16" height="16" transform="rotate(0,184,200)"/><rect x="176" y="224" width="16" height="16" transform="rotate(0,184,232)"/><rect x="176" y="240" width="16" height="16" transform="rotate(0,184,248)"/><rect x="176" y="256" width="16" height="16" transform="rotate(0,184,264)"/><rect x="176" y="288" width="16" height="16" transform="rotate(0,184,296)"/><rect x="176" y="320" width="16" height="16" transform="rotate(0,184,328)"/><rect x="176" y="336" width="16" height="16" transform="rotate(0,184,344)"/><rect x="192" y="0" width="16" height="16" transform="rotate(0,200,8)"/><rect x="192" y="64" width="16" height="16" transform="rotate(0,200,72)"/><rect x="192" y="96" width="16" height="16" transform="rotate(0,200,104)"/><rect x="192" y="128" width="16" height="16" transform="rotate(0,200,136)"/><rect x="192" y="144" width="16" height="16" transform="rotate(0,200,152)"/><rect x="192" y="160" width="16" height="16" transform="rotate(0,200,168)"/><rect x="192" y="224" width="16" height="16" transform="rotate(0,200,232)"/><rect x="192" y="256" width="16" height="16" transform="rotate(0,200,264)"/><rect x="192" y="288" width="16" height="16" transform="rotate(0,200,296)"/><rect x="192" y="304" width="16" height="16" transform="rotate(0,200,312)"/><rect x="192" y="384" width="16" height="16" transform="rotate(0,200,392)"/><rect x="208" y="32" width="16" height="16" transform="rotate(0,216,40)"/><rect x="208" y="48" width="16" height="16" transform="rotate(0,216,56)"/><rect x="208" y="144" width="16" height="16" transform="rotate(0,216,152)"/><rect x="208" y="160" width="16" height="16" transform="rotate(0,216,168)"/><rect x="208" y="208" width="16" height="16" transform="rotate(0,216,216)"/><rect x="208" y="224" width="16" height="16" transform="rotate(0,216,232)"/><rect x="208" y="240" width="16" height="16" transform="rotate(0,216,248)"/><rect x="208" y="288" width="16" height="16" transform="rotate(0,216,296)"/><rect x="208" y="304" width="16" height="16" transform="rotate(0,216,312)"/><rect x="208" y="368" width="16" height="16" transform="rotate(0,216,376)"/><rect x="208" y="384" width="16" height="16" transform="rotate(0,216,392)"/><rect x="224" y="0" width="16" height="16" transform="rotate(0,232,8)"/><rect x="224" y="16" width="16" height="16" transform="rotate(0,232,24)"/><rect x="224" y="48" width="16" height="16" transform="rotate(0,232,56)"/><rect x="224" y="80" width="16" height="16" transform="rotate(0,232,88)"/><rect x="224" y="96" width="16" height="16" transform="rotate(0,232,104)"/><rect x="224" y="144" width="16" height="16" transform="rotate(0,232,152)"/><rect x="224" y="160" width="16" height="16" transform="rotate(0,232,168)"/><rect x="224" y="176" width="16" height="16" transform="rotate(0,232,184)"/><rect x="224" y="240" width="16" height="16" transform="rotate(0,232,248)"/><rect x="224" y="256" width="16" height="16" transform="rotate(0,232,264)"/><rect x="224" y="272" width="16" height="16" transform="rotate(0,232,280)"/><rect x="224" y="288" width="16" height="16" transform="rotate(0,232,296)"/><rect x="224" y="320" width="16" height="16" transform="rotate(0,232,328)"/><rect x="224" y="336" width="16" height="16" transform="rotate(0,232,344)"/><rect x="224" y="352" width="16" height="16" transform="rotate(0,232,360)"/><rect x="224" y="384" width="16" height="16" transform="rotate(0,232,392)"/><rect x="240" y="48" width="16" height="16" transform="rotate(0,248,56)"/><rect x="240" y="144" width="16" height="16" transform="rotate(0,248,152)"/><rect x="240" y="160" width="16" height="16" transform="rotate(0,248,168)"/><rect x="240" y="224" width="16" height="16" transform="rotate(0,248,232)"/><rect x="240" y="272" width="16" height="16" transform="rotate(0,248,280)"/><rect x="240" y="304" width="16" height="16" transform="rotate(0,248,312)"/><rect x="256" y="0" width="16" height="16" transform="rotate(0,264,8)"/><rect x="256" y="16" width="16" height="16" transform="rotate(0,264,24)"/><rect x="256" y="64" width="16" height="16" transform="rotate(0,264,72)"/><rect x="256" y="80" width="16" height="16" transform="rotate(0,264,88)"/><rect x="256" y="96" width="16" height="16" transform="rotate(0,264,104)"/><rect x="256" y="112" width="16" height="16" transform="rotate(0,264,120)"/><rect x="256" y="160" width="16" height="16" transform="rotate(0,264,168)"/><rect x="256" y="176" width="16" height="16" transform="rotate(0,264,184)"/><rect x="256" y="192" width="16" height="16" transform="rotate(0,264,200)"/><rect x="256" y="256" width="16" height="16" transform="rotate(0,264,264)"/><rect x="256" y="272" width="16" height="16" transform="rotate(0,264,280)"/><rect x="256" y="288" width="16" height="16" transform="rotate(0,264,296)"/><rect x="256" y="304" width="16" height="16" transform="rotate(0,264,312)"/><rect x="256" y="320" width="16" height="16" transform="rotate(0,264,328)"/><rect x="256" y="368" width="16" height="16" transform="rotate(0,264,376)"/><rect x="272" y="128" width="16" height="16" transform="rotate(0,280,136)"/><rect x="272" y="144" width="16" height="16" transform="rotate(0,280,152)"/><rect x="272" y="192" width="16" height="16" transform="rotate(0,280,200)"/><rect x="272" y="208" width="16" height="16" transform="rotate(0,280,216)"/><rect x="272" y="240" width="16" height="16" transform="rotate(0,280,248)"/><rect x="272" y="256" width="16" height="16" transform="rotate(0,280,264)"/><rect x="272" y="320" width="16" height="16" transform="rotate(0,280,328)"/><rect x="272" y="352" width="16" height="16" transform="rotate(0,280,360)"/><rect x="272" y="384" width="16" height="16" transform="rotate(0,280,392)"/><rect x="288" y="144" width="16" height="16" transform="rotate(0,296,152)"/><rect x="288" y="160" width="16" height="16" transform="rotate(0,296,168)"/><rect x="288" y="192" width="16" height="16" transform="rotate(0,296,200)"/><rect x="288" y="208" width="16" height="16" transform="rotate(0,296,216)"/><rect x="288" y="224" width="16" height="16" transform="rotate(0,296,232)"/><rect x="288" y="256" width="16" height="16" transform="rotate(0,296,264)"/><rect x="288" y="288" width="16" height="16" transform="rotate(0,296,296)"/><rect x="288" y="320" width="16" height="16" transform="rotate(0,296,328)"/><rect x="288" y="336" width="16" height="16" transform="rotate(0,296,344)"/><rect x="288" y="384" width="16" height="16" transform="rotate(0,296,392)"/><rect x="304" y="128" width="16" height="16" transform="rotate(0,312,136)"/><rect x="304" y="176" width="16" height="16" transform="rotate(0,312,184)"/><rect x="304" y="192" width="16" height="16" transform="rotate(0,312,200)"/><rect x="304" y="224" width="16" height="16" transform="rotate(0,312,232)"/><rect x="304" y="240" width="16" height="16" transform="rotate(0,312,248)"/><rect x="304" y="256" width="16" height="16" transform="rotate(0,312,264)"/><rect x="304" y="320" width="16" height="16" transform="rotate(0,312,328)"/><rect x="320" y="160" width="16" height="16" transform="rotate(0,328,168)"/><rect x="320" y="192" width="16" height="16" transform="rotate(0,328,200)"/><rect x="320" y="224" width="16" height="16" transform="rotate(0,328,232)"/><rect x="320" y="240" width="16" height="16" transform="rotate(0,328,248)"/><rect x="320" y="256" width="16" height="16" transform="rotate(0,328,264)"/><rect x="320" y="272" width="16" height="16" transform="rotate(0,328,280)"/><rect x="320" y="288" width="16" height="16" transform="rotate(0,328,296)"/><rect x="320" y="304" width="16" height="16" transform="rotate(0,328,312)"/><rect x="320" y="320" width="16" height="16" transform="rotate(0,328,328)"/><rect x="320" y="336" width="16" height="16" transform="rotate(0,328,344)"/><rect x="320" y="368" width="16" height="16" transform="rotate(0,328,376)"/><rect x="336" y="144" width="16" height="16" transform="rotate(0,344,152)"/><rect x="336" y="160" width="16" height="16" transform="rotate(0,344,168)"/><rect x="336" y="208" width="16" height="16" transform="rotate(0,344,216)"/><rect x="336" y="224" width="16" height="16" transform="rotate(0,344,232)"/><rect x="336" y="272" width="16" height="16" transform="rotate(0,344,280)"/><rect x="336" y="320" width="16" height="16" transform="rotate(0,344,328)"/><rect x="336" y="336" width="16" height="16" transform="rotate(0,344,344)"/><rect x="336" y="352" width="16" height="16" transform="rotate(0,344,360)"/><rect x="336" y="368" width="16" height="16" transform="rotate(0,344,376)"/><rect x="352" y="128" width="16" height="16" transform="rotate(0,360,136)"/><rect x="352" y="160" width="16" height="16" transform="rotate(0,360,168)"/><rect x="352" y="176" width="16" height="16" transform="rotate(0,360,184)"/><rect x="352" y="208" width="16" height="16" transform="rotate(0,360,216)"/><rect x="352" y="320" width="16" height="16" transform="rotate(0,360,328)"/><rect x="352" y="368" width="16" height="16" transform="rotate(0,360,376)"/><rect x="352" y="384" width="16" height="16" transform="rotate(0,360,392)"/><rect x="368" y="128" width="16" height="16" transform="rotate(0,376,136)"/><rect x="368" y="144" width="16" height="16" transform="rotate(0,376,152)"/><rect x="368" y="224" width="16" height="16" transform="rotate(0,376,232)"/><rect x="368" y="256" width="16" height="16" transform="rotate(0,376,264)"/><rect x="368" y="304" width="16" height="16" transform="rotate(0,376,312)"/><rect x="368" y="320" width="16" height="16" transform="rotate(0,376,328)"/><rect x="384" y="128" width="16" height="16" transform="rotate(0,392,136)"/><rect x="384" y="144" width="16" height="16" transform="rotate(0,392,152)"/><rect x="384" y="160" width="16" height="16" transform="rotate(0,392,168)"/><rect x="384" y="176" width="16" height="16" transform="rotate(0,392,184)"/><rect x="384" y="224" width="16" height="16" transform="rotate(0,392,232)"/><rect x="384" y="256" width="16" height="16" transform="rotate(0,392,264)"/><rect x="384" y="272" width="16" height="16" transform="rotate(0,392,280)"/><rect x="384" y="288" width="16" height="16" transform="rotate(0,392,296)"/><rect x="384" y="336" width="16" height="16" transform="rotate(0,392,344)"/><rect x="384" y="384" width="16" height="16" transform="rotate(0,392,392)"/><path clip-rule="evenodd" d="M 0 0v 112h 112v -112zM 16 16h 80v 80h -80z" transform="rotate(0,56,56)"/><rect x="32" y="32" width="48" height="48" transform="rotate(0,56,56)"/><path clip-rule="evenodd" d="M 288 0v 112h 112v -112zM 304 16h 80v 80h -80z" transform="rotate(90,344,56)"/><rect x="320" y="32" width="48" height="48" transform="rotate(90,344,56)"/><path clip-rule="evenodd" d="M 0 288v 112h 112v -112zM 16 304h 80v 80h -80z" transform="rotate(-90,56,344)"/><rect x="32" y="320" width="48" height="48" transform="rotate(-90,56,344)"/></clipPath></defs><rect x="0" y="0" height="400" width="400" clip-path="url('#clip-path-background-color')" fill="#ffffff"/><rect x="0" y="0" height="400" width="400" clip-path="url('#clip-path-dot-color')" fill="#000000"/></svg>