<?xml version="1.0" standalone="no"?>
<svg xmlns="http://www.w3.org/2000/svg" width="250" height="250"><defs><clipPath id="clip-path-dot-color"><rect x="0" y="80" width="10" height="10" transform="rotate(0,5,85)"/><rect x="0" y="110" width="10" height="10" transform="rotate(0,5,115)"/><rect x="0" y="120" width="10" height="10" transform="rotate(0,5,125)"/><rect x="0" y="140" width="10" height="10" transform="rotate(0,5,145)"/><rect x="10" y="80" width="10" height="10" transform="rotate(0,15,85)"/><rect x="10" y="90" width="10" height="10" transform="rotate(0,15,95)"/><rect x="10" y="100" width="10" height="10" transform="rotate(0,15,105)"/><rect x="10" y="120" width="10" height="10" transform="rotate(0,15,125)"/><rect x="10" y="130" width="10" height="10" transform="rotate(0,15,135)"/><rect x="10" y="140" width="10" height="10" transform="rotate(0,15,145)"/><rect x="10" y="160" width="10" height="10" transform="rotate(0,15,165)"/><rect x="20" y="100" width="10" height="10" transform="rotate(0,25,105)"/><rect x="20" y="110" width="10" height="10" transform="rotate(0,25,115)"/><rect x="20" y="120" width="10" height="10" transform="rotate(0,25,125)"/><rect x="20" y="130" width="10" height="10" transform="rotate(0,25,135)"/><rect x="20" y="140" width="10" height="10" transform="rotate(0,25,145)"/><rect x="20" y="150" width="10" height="10" transform="rotate(0,25,155)"/><rect x="20" y="160" width="10" height="10" transform="rotate(0,25,165)"/><rect x="30" y="100" width="10" height="10" transform="rotate(0,35,105)"/><rect x="30" y="130" width="10" height="10" transform="rotate(0,35,135)"/><rect x="30" y="140" width="10" height="10" transform="rotate(0,35,145)"/><rect x="30" y="150" width="10" height="10" transform="rotate(0,35,155)"/><rect x="40" y="80" width="10" height="10" transform="rotate(0,45,85)"/><rect x="40" y="90" width="10" height="10" transform="rotate(0,45,95)"/><rect x="40" y="100" width="10" height="10" transform="rotate(0,45,105)"/><rect x="40" y="110" width="10" height="10" transform="rotate(0,45,115)"/><rect x="40" y="140" width="10" height="10" transform="rotate(0,45,145)"/><rect x="50" y="80" width="10" height="10" transform="rotate(0,55,85)"/><rect x="50" y="110" width="10" height="10" transform="rotate(0,55,115)"/><rect x="50" y="130" width="10" height="10" transform="rotate(0,55,135)"/><rect x="60" y="80" width="10" height="10" transform="rotate(0,65,85)"/><rect x="60" y="100" width="10" height="10" transform="rotate(0,65,105)"/><rect x="60" y="120" width="10" height="10" transform="rotate(0,65,125)"/><rect x="60" y="140" width="10" height="10" transform="rotate(0,65,145)"/><rect x="60" y="160" width="10" height="10" transform="rotate(0,65,165)"/><rect x="70" y="80" width="10" height="10" transform="rotate(0,75,85)"/><rect x="70" y="100" width="10" height="10" transform="rotate(0,75,105)"/><rect x="70" y="110" width="10" height="10" transform="rotate(0,75,115)"/><rect x="70" y="120" width="10" height="10" transform="rotate(0,75,125)"/><rect x="70" y="140" width="10" height="10" transform="rotate(0,75,145)"/><rect x="70" y="160" width="10" height="10" transform="rotate(0,75,165)"/><rect x="80" y="0" width="10" height="10" transform="rotate(0,85,5)"/><rect x="80" y="10" width="10" height="10" transform="rotate(0,85,15)"/><rect x="80" y="20" width="10" height="10" transform="rotate(0,85,25)"/><rect x="80" y="50" width="10" height="10" transform="rotate(0,85,55)"/><rect x="80" y="60" width="10" height="10" transform="rotate(0,85,65)"/><rect x="80" y="80" width="10" height="10" transform="rotate(0,85,85)"/><rect x="80" y="90" width="10" height="10" transform="rotate(0,85,95)"/><rect x="80" y="100" width="10" height="10" transform="rotate(0,85,105)"/><rect x="80" y="140" width="10" height="10" transform="rotate(0,85,145)"/><rect x="80" y="160" width="10" height="10" transform="rotate(0,85,165)"/><rect x="80" y="170" width="10" height="10" transform="rotate(0,85,175)"/><rect x="80" y="180" width="10" height="10" transform="rotate(0,85,185)"/><rect x="80" y="190" width="10" height="10" transform="rotate(0,85,195)"/><rect x="80" y="200" width="10" height="10" transform="rotate(0,85,205)"/><rect x="80" y="230" width="10" height="10" transform="rotate(0,85,235)"/><rect x="80" y="240" width="10" height="10" transform="rotate(0,85,245)"/><rect x="90" y="0" width="10" height="10" transform="rotate(0,95,5)"/><rect x="90" y="10" width="10" height="10" transform="rotate(0,95,15)"/><rect x="90" y="30" width="10" height="10" transform="rotate(0,95,35)"/><rect x="90" y="70" width="10" height="10" transform="rotate(0,95,75)"/><rect x="90" y="90" width="10" height="10" transform="rotate(0,95,95)"/><rect x="90" y="100" width="10" height="10" transform="rotate(0,95,105)"/><rect x="90" y="130" width="10" height="10" transform="rotate(0,95,135)"/><rect x="90" y="150" width="10" height="10" transform="rotate(0,95,155)"/><rect x="90" y="160" width="10" height="10" transform="rotate(0,95,165)"/><rect x="90" y="180" width="10" height="10" transform="rotate(0,95,185)"/><rect x="90" y="210" width="10" height="10" transform="rotate(0,95,215)"/><rect x="90" y="230" width="10" height="10" transform="rotate(0,95,235)"/><rect x="90" y="240" width="10" height="10" transform="rotate(0,95,245)"/><rect x="100" y="0" width="10" height="10" transform="rotate(0,105,5)"/><rect x="100" y="10" width="10" height="10" transform="rotate(0,105,15)"/><rect x="100" y="60" width="10" height="10" transform="rotate(0,105,65)"/><rect x="100" y="70" width="10" height="10" transform="rotate(0,105,75)"/><rect x="100" y="80" width="10" height="10" transform="rotate(0,105,85)"/><rect x="100" y="110" width="10" height="10" transform="rotate(0,105,115)"/><rect x="100" y="150" width="10" height="10" transform="rotate(0,105,155)"/><rect x="100" y="160" width="10" height="10" transform="rotate(0,105,165)"/><rect x="100" y="190" width="10" height="10" transform="rotate(0,105,195)"/><rect x="100" y="200" width="10" height="10" transform="rotate(0,105,205)"/><rect x="100" y="210" width="10" height="10" transform="rotate(0,105,215)"/><rect x="100" y="220" width="10" height="10" transform="rotate(0,105,225)"/><rect x="100" y="240" width="10" height="10" transform="rotate(0,105,245)"/><rect x="110" y="10" width="10" height="10" transform="rotate(0,115,15)"/><rect x="110" y="50" width="10" height="10" transform="rotate(0,115,55)"/><rect x="110" y="70" width="10" height="10" transform="rotate(0,115,75)"/><rect x="110" y="90" width="10" height="10" transform="rotate(0,115,95)"/><rect x="110" y="140" width="10" height="10" transform="rotate(0,115,145)"/><rect x="110" y="150" width="10" height="10" transform="rotate(0,115,155)"/><rect x="110" y="160" width="10" height="10" transform="rotate(0,115,165)"/><rect x="110" y="180" width="10" height="10" transform="rotate(0,115,185)"/><rect x="110" y="200" width="10" height="10" transform="rotate(0,115,205)"/><rect x="110" y="210" width="10" height="10" transform="rotate(0,115,215)"/><rect x="120" y="10" width="10" height="10" transform="rotate(0,125,15)"/><rect x="120" y="20" width="10" height="10" transform="rotate(0,125,25)"/><rect x="120" y="30" width="10" height="10" transform="rotate(0,125,35)"/><rect x="120" y="40" width="10" height="10" transform="rotate(0,125,45)"/><rect x="120" y="50" width="10" height="10" transform="rotate(0,125,55)"/><rect x="120" y="60" width="10" height="10" transform="rotate(0,125,65)"/><rect x="120" y="70" width="10" height="10" transform="rotate(0,125,75)"/><rect x="120" y="90" width="10" height="10" transform="rotate(0,125,95)"/><rect x="120" y="110" width="10" height="10" transform="rotate(0,125,115)"/><rect x="120" y="120" width="10" height="10" transform="rotate(0,125,125)"/><rect x="120" y="140" width="10" height="10" transform="rotate(0,125,145)"/><rect x="120" y="160" width="10" height="10" transform="rotate(0,125,165)"/><rect x="120" y="180" width="10" height="10" transform="rotate(0,125,185)"/><rect x="120" y="190" width="10" height="10" transform="rotate(0,125,195)"/><rect x="120" y="240" width="10" height="10" transform="rotate(0,125,245)"/><rect x="130" y="10" width="10" height="10" transform="rotate(0,135,15)"/><rect x="130" y="20" width="10" height="10" transform="rotate(0,135,25)"/><rect x="130" y="40" width="10" height="10" transform="rotate(0,135,45)"/><rect x="130" y="80" width="10" height="10" transform="rotate(0,135,85)"/><rect x="130" y="90" width="10" height="10" transform="rotate(0,135,95)"/><rect x="130" y="120" width="10" height="10" transform="rotate(0,135,125)"/><rect x="130" y="130" width="10" height="10" transform="rotate(0,135,135)"/><rect x="130" y="140" width="10" height="10" transform="rotate(0,135,145)"/><rect x="130" y="150" width="10" height="10" transform="rotate(0,135,155)"/><rect x="130" y="180" width="10" height="10" transform="rotate(0,135,185)"/><rect x="130" y="190" width="10" height="10" transform="rotate(0,135,195)"/><rect x="130" y="230" width="10" height="10" transform="rotate(0,135,235)"/><rect x="130" y="240" width="10" height="10" transform="rotate(0,135,245)"/><rect x="140" y="0" width="10" height="10" transform="rotate(0,145,5)"/><rect x="140" y="10" width="10" height="10" transform="rotate(0,145,15)"/><rect x="140" y="20" width="10" height="10" transform="rotate(0,145,25)"/><rect x="140" y="50" width="10" height="10" transform="rotate(0,145,55)"/><rect x="140" y="60" width="10" height="10" transform="rotate(0,145,65)"/><rect x="140" y="120" width="10" height="10" transform="rotate(0,145,125)"/><rect x="140" y="150" width="10" height="10" transform="rotate(0,145,155)"/><rect x="140" y="160" width="10" height="10" transform="rotate(0,145,165)"/><rect x="140" y="170" width="10" height="10" transform="rotate(0,145,175)"/><rect x="140" y="180" width="10" height="10" transform="rotate(0,145,185)"/><rect x="140" y="200" width="10" height="10" transform="rotate(0,145,205)"/><rect x="140" y="210" width="10" height="10" transform="rotate(0,145,215)"/><rect x="140" y="220" width="10" height="10" transform="rotate(0,145,225)"/><rect x="140" y="240" width="10" height="10" transform="rotate(0,145,245)"/><rect x="150" y="30" width="10" height="10" transform="rotate(0,155,35)"/><rect x="150" y="40" width="10" height="10" transform="rotate(0,155,45)"/><rect x="150" y="70" width="10" height="10" transform="rotate(0,155,75)"/><rect x="150" y="80" width="10" height="10" transform="rotate(0,155,85)"/><rect x="150" y="90" width="10" height="10" transform="rotate(0,155,95)"/><rect x="150" y="100" width="10" height="10" transform="rotate(0,155,105)"/><rect x="150" y="110" width="10" height="10" transform="rotate(0,155,115)"/><rect x="150" y="120" width="10" height="10" transform="rotate(0,155,125)"/><rect x="150" y="140" width="10" height="10" transform="rotate(0,155,145)"/><rect x="150" y="170" width="10" height="10" transform="rotate(0,155,175)"/><rect x="150" y="190" width="10" height="10" transform="rotate(0,155,195)"/><rect x="160" y="0" width="10" height="10" transform="rotate(0,165,5)"/><rect x="160" y="10" width="10" height="10" transform="rotate(0,165,15)"/><rect x="160" y="20" width="10" height="10" transform="rotate(0,165,25)"/><rect x="160" y="60" width="10" height="10" transform="rotate(0,165,65)"/><rect x="160" y="90" width="10" height="10" transform="rotate(0,165,95)"/><rect x="160" y="120" width="10" height="10" transform="rotate(0,165,125)"/><rect x="160" y="160" width="10" height="10" transform="rotate(0,165,165)"/><rect x="160" y="170" width="10" height="10" transform="rotate(0,165,175)"/><rect x="160" y="180" width="10" height="10" transform="rotate(0,165,185)"/><rect x="160" y="190" width="10" height="10" transform="rotate(0,165,195)"/><rect x="160" y="200" width="10" height="10" transform="rotate(0,165,205)"/><rect x="160" y="230" width="10" height="10" transform="rotate(0,165,235)"/><rect x="170" y="80" width="10" height="10" transform="rotate(0,175,85)"/><rect x="170" y="130" width="10" height="10" transform="rotate(0,175,135)"/><rect x="170" y="150" width="10" height="10" transform="rotate(0,175,155)"/><rect x="170" y="160" width="10" height="10" transform="rotate(0,175,165)"/><rect x="170" y="200" width="10" height="10" transform="rotate(0,175,205)"/><rect x="170" y="220" width="10" height="10" transform="rotate(0,175,225)"/><rect x="170" y="240" width="10" height="10" transform="rotate(0,175,245)"/><rect x="180" y="90" width="10" height="10" transform="rotate(0,185,95)"/><rect x="180" y="100" width="10" height="10" transform="rotate(0,185,105)"/><rect x="180" y="110" width="10" height="10" transform="rotate(0,185,115)"/><rect x="180" y="130" width="10" height="10" transform="rotate(0,185,135)"/><rect x="180" y="140" width="10" height="10" transform="rotate(0,185,145)"/><rect x="180" y="160" width="10" height="10" transform="rotate(0,185,165)"/><rect x="180" y="180" width="10" height="10" transform="rotate(0,185,185)"/><rect x="180" y="200" width="10" height="10" transform="rotate(0,185,205)"/><rect x="180" y="210" width="10" height="10" transform="rotate(0,185,215)"/><rect x="180" y="240" width="10" height="10" transform="rotate(0,185,245)"/><rect x="190" y="80" width="10" height="10" transform="rotate(0,195,85)"/><rect x="190" y="90" width="10" height="10" transform="rotate(0,195,95)"/><rect x="190" y="110" width="10" height="10" transform="rotate(0,195,115)"/><rect x="190" y="140" width="10" height="10" transform="rotate(0,195,145)"/><rect x="190" y="150" width="10" height="10" transform="rotate(0,195,155)"/><rect x="190" y="160" width="10" height="10" transform="rotate(0,195,165)"/><rect x="190" y="200" width="10" height="10" transform="rotate(0,195,205)"/><rect x="190" y="230" width="10" height="10" transform="rotate(0,195,235)"/><rect x="200" y="110" width="10" height="10" transform="rotate(0,205,115)"/><rect x="200" y="140" width="10" height="10" transform="rotate(0,205,145)"/><rect x="200" y="150" width="10" height="10" transform="rotate(0,205,155)"/><rect x="200" y="160" width="10" height="10" transform="rotate(0,205,165)"/><rect x="200" y="170" width="10" height="10" transform="rotate(0,205,175)"/><rect x="200" y="180" width="10" height="10" transform="rotate(0,205,185)"/><rect x="200" y="190" width="10" height="10" transform="rotate(0,205,195)"/><rect x="200" y="200" width="10" height="10" transform="rotate(0,205,205)"/><rect x="200" y="210" width="10" height="10" transform="rotate(0,205,215)"/><rect x="200" y="230" width="10" height="10" transform="rotate(0,205,235)"/><rect x="210" y="100" width="10" height="10" transform="rotate(0,215,105)"/><rect x="210" y="110" width="10" height="10" transform="rotate(0,215,115)"/><rect x="210" y="130" width="10" height="10" transform="rotate(0,215,135)"/><rect x="210" y="140" width="10" height="10" transform="rotate(0,215,145)"/><rect x="210" y="170" width="10" height="10" transform="rotate(0,215,175)"/><rect x="210" y="200" width="10" height="10" transform="rotate(0,215,205)"/><rect x="210" y="210" width="10" height="10" transform="rotate(0,215,215)"/><rect x="210" y="220" width="10" height="10" transform="rotate(0,215,225)"/><rect x="210" y="230" width="10" height="10" transform="rotate(0,215,235)"/><rect x="220" y="80" width="10" height="10" transform="rotate(0,225,85)"/><rect x="220" y="100" width="10" height="10" transform="rotate(0,225,105)"/><rect x="220" y="110" width="10" height="10" transform="rotate(0,225,115)"/><rect x="220" y="130" width="10" height="10" transform="rotate(0,225,135)"/><rect x="220" y="200" width="10" height="10" transform="rotate(0,225,205)"/><rect x="220" y="230" width="10" height="10" transform="rotate(0,225,235)"/><rect x="220" y="240" width="10" height="10" transform="rotate(0,225,245)"/><rect x="230" y="80" width="10" height="10" transform="rotate(0,235,85)"/><rect x="230" y="90" width="10" height="10" transform="rotate(0,235,95)"/><rect x="230" y="140" width="10" height="10" transform="rotate(0,235,145)"/><rect x="230" y="160" width="10" height="10" transform="rotate(0,235,165)"/><rect x="230" y="190" width="10" height="10" transform="rotate(0,235,195)"/><rect x="230" y="200" width="10" height="10" transform="rotate(0,235,205)"/><rect x="240" y="80" width="10" height="10" transform="rotate(0,245,85)"/><rect x="240" y="90" width="10" height="10" transform="rotate(0,245,95)"/><rect x="240" y="100" width="10" height="10" transform="rotate(0,245,105)"/><rect x="240" y="110" width="10" height="10" transform="rotate(0,245,115)"/><rect x="240" y="140" width="10" height="10" transform="rotate(0,245,145)"/><rect x="240" y="160" width="10" height="10" transform="rotate(0,245,165)"/><rect x="240" y="170" width="10" height="10" transform="rotate(0,245,175)"/><rect x="240" y="180" width="10" height="10" transform="rotate(0,245,185)"/><rect x="240" y="210" width="10" height="10" transform="rotate(0,245,215)"/><rect x="240" y="240" width="10" height="10" transform="rotate(0,245,245)"/><path clip-rule="evenodd" d="M 0 0v 70h 70v -70zM 10 10h 50v 50h -50z" transform="rotate(0,35,35)"/><rect x="20" y="20" width="30" height="30" transform="rotate(0,35,35)"/><path clip-rule="evenodd" d="M 180 0v 70h 70v -70zM 190 10h 50v 50h -50z" transform="rotate(90,215,35)"/><rect x="200" y="20" width="30" height="30" transform="rotate(90,215,35)"/><path clip-rule="evenodd" d="M 0 180v 70h 70v -70zM 10 190h 50v 50h -50z" transform="rotate(-90,35,215)"/><rect x="20" y="200" width="30" height="30" transform="rotate(-90,35,215)"/></clipPath></defs><rect x="0" y="0" height="250" width="250" clip-path="url('#clip-path-background-color')" fill="#ffffff"/><rect x="0" y="0" height="250" width="250" clip-path="url('#clip-path-dot-color')" fill="#000000"/></svg>